<svg width="14" height="18" viewBox="0 0 14 18" fill="none" xmlns="http://www.w3.org/2000/svg">
<path fill-rule="evenodd" clip-rule="evenodd" d="M11.164 0.51909L11.3607 2.03297C11.4341 2.5971 11.7788 3.03918 12.2187 3.13326L13.3993 3.38551C13.4862 3.40382 13.5543 3.49117 13.5686 3.60262C13.587 3.74606 13.5112 3.88147 13.3993 3.90504L12.2187 4.15739C11.7788 4.25143 11.4341 4.69351 11.3607 5.25762L11.164 6.77149C11.1498 6.88307 11.0816 6.97049 10.9946 6.98876C10.8827 7.01226 10.7772 6.91497 10.7588 6.77149L10.5621 5.25762C10.4888 4.69348 10.144 4.2514 9.70406 4.15739L8.52347 3.90504C8.43656 3.88673 8.36844 3.79938 8.35419 3.68793C8.33582 3.54448 8.41161 3.40907 8.52347 3.38551L9.70406 3.13326C10.144 3.03925 10.4888 2.59713 10.5621 2.03297L10.7588 0.51909C10.7731 0.407538 10.8413 0.320098 10.9283 0.301838C11.0401 0.27835 11.1457 0.375619 11.164 0.51909ZM5.62492 4.756L6.01842 7.78367C6.16499 8.91188 6.85441 9.79601 7.7342 9.98414L10.0953 10.4886C10.2691 10.5253 10.4053 10.7 10.4339 10.9228C10.4706 11.2097 10.3191 11.4805 10.0953 11.5276L7.7342 12.0323C6.85444 12.2204 6.16502 13.1045 6.01842 14.2327L5.62492 17.2604C5.59644 17.4835 5.46007 17.6583 5.28609 17.6948C5.06234 17.7418 4.85125 17.5473 4.81461 17.2604L4.42113 14.2327C4.27448 13.1044 3.58498 12.2203 2.70512 12.0323L0.344073 11.5276C0.170269 11.491 0.034035 11.3163 0.00549005 11.0935C-0.0312554 10.8066 0.120333 10.5358 0.344073 10.4886L2.70512 9.98414C3.58501 9.79611 4.2745 8.91195 4.42113 7.78367L4.81461 4.756C4.84311 4.5329 4.97948 4.35803 5.15343 4.32151C5.37721 4.27456 5.5883 4.46908 5.62492 4.756Z" fill="#B8FFE3"/>
<path fill-rule="evenodd" clip-rule="evenodd" d="M11.164 0.51909L11.3607 2.03297C11.4341 2.5971 11.7788 3.03918 12.2187 3.13326L13.3993 3.38551C13.4862 3.40382 13.5543 3.49117 13.5686 3.60262C13.587 3.74606 13.5112 3.88147 13.3993 3.90504L12.2187 4.15739C11.7788 4.25143 11.4341 4.69351 11.3607 5.25762L11.164 6.77149C11.1498 6.88307 11.0816 6.97049 10.9946 6.98876C10.8827 7.01226 10.7772 6.91497 10.7588 6.77149L10.5621 5.25762C10.4888 4.69348 10.144 4.2514 9.70406 4.15739L8.52347 3.90504C8.43656 3.88673 8.36844 3.79938 8.35419 3.68793C8.33582 3.54448 8.41161 3.40907 8.52347 3.38551L9.70406 3.13326C10.144 3.03925 10.4888 2.59713 10.5621 2.03297L10.7588 0.51909C10.7731 0.407538 10.8413 0.320098 10.9283 0.301838C11.0401 0.27835 11.1457 0.375619 11.164 0.51909ZM5.62492 4.756L6.01842 7.78367C6.16499 8.91188 6.85441 9.79601 7.7342 9.98414L10.0953 10.4886C10.2691 10.5253 10.4053 10.7 10.4339 10.9228C10.4706 11.2097 10.3191 11.4805 10.0953 11.5276L7.7342 12.0323C6.85444 12.2204 6.16502 13.1045 6.01842 14.2327L5.62492 17.2604C5.59644 17.4835 5.46007 17.6583 5.28609 17.6948C5.06234 17.7418 4.85125 17.5473 4.81461 17.2604L4.42113 14.2327C4.27448 13.1044 3.58498 12.2203 2.70512 12.0323L0.344073 11.5276C0.170269 11.491 0.034035 11.3163 0.00549005 11.0935C-0.0312554 10.8066 0.120333 10.5358 0.344073 10.4886L2.70512 9.98414C3.58501 9.79611 4.2745 8.91195 4.42113 7.78367L4.81461 4.756C4.84311 4.5329 4.97948 4.35803 5.15343 4.32151C5.37721 4.27456 5.5883 4.46908 5.62492 4.756Z" fill="url(#paint0_linear_2217_5580)"/>
<defs>
<linearGradient id="paint0_linear_2217_5580" x1="0" y1="9.00009" x2="13.5713" y2="9.00009" gradientUnits="userSpaceOnUse">
<stop stop-color="#B8FFE3"/>
<stop offset="1" stop-color="#C081FF"/>
</linearGradient>
</defs>
</svg>
