<svg width="17" height="16" viewBox="0 0 17 16" fill="none" xmlns="http://www.w3.org/2000/svg">
<g clip-path="url(#clip0_2230_4947)">
<path d="M4.26066 15.2827L3.72947 14.7789C3.42351 14.4888 3.42351 14.0184 3.72947 13.7284L10.9341 5.90218C11.2401 5.61203 11.7361 5.61203 12.0419 5.90218L12.5731 6.40592C12.8791 6.69607 12.8791 7.16647 12.5731 7.45644L5.36843 15.2827C5.06247 15.5728 4.56643 15.5728 4.26066 15.2827Z" fill="white"/>
<path d="M8.36933 4.23132C5.41823 4.74659 4.97783 5.16424 4.43466 7.96263C3.8915 5.16424 3.45109 4.74659 0.5 4.23132C3.45109 3.71622 3.8915 3.29858 4.43466 0.5C4.97783 3.29858 5.41843 3.71622 8.36933 4.23132Z" fill="white"/>
<path d="M16.4996 2.66222C14.7895 2.9608 14.5342 3.20278 14.2195 4.82444C13.9047 3.20278 13.6495 2.96062 11.9395 2.66222C13.6495 2.36364 13.9049 2.12167 14.2195 0.5C14.5344 2.12167 14.7895 2.36383 16.4996 2.66222Z" fill="white"/>
<path d="M16.2202 10.0759C15.0927 10.2728 14.9245 10.4323 14.717 11.5015C14.5094 10.4323 14.3411 10.2728 13.2139 10.0761C14.3413 9.87914 14.5096 9.71959 14.717 8.65039C14.9247 9.71959 15.0929 9.87914 16.2202 10.0759Z" fill="white"/>
</g>
<defs>
<clipPath id="clip0_2230_4947">
<rect width="16" height="15" fill="white" transform="translate(0.5 0.5)"/>
</clipPath>
</defs>
</svg>
